<svg width="1024" height="1024" viewBox="0 0 1024 1024" fill="none" xmlns="http://www.w3.org/2000/svg">
<g filter="url(#filter0_d_2022_81)">
<path d="M306.863 796.028L803.965 708.375C864.306 697.735 888.918 662.59 878.483 603.409L835.982 362.379C825.598 303.485 790.45 278.876 730.108 289.516L698.213 295.14L691.425 256.644C687.575 234.811 672.602 223.825 650.476 227.726L593.008 237.859C571.17 241.71 560.857 257.154 564.707 278.988L571.495 317.484L391.907 349.15L385.119 310.654C381.269 288.821 366.296 277.835 344.171 281.736L286.703 291.869C264.577 295.771 254.264 311.215 258.114 333.049L264.902 371.544L233.007 377.168C172.953 387.758 148 422.668 158.435 481.848L200.935 722.879C211.421 782.347 246.809 806.617 306.863 796.028Z" fill="url(#paint0_linear_2022_81)"/>
<path d="M340.697 262.04C355.702 259.394 370.759 261.448 383.115 270.264C395.408 279.036 402.227 292.507 404.815 307.181L408.13 325.981L548.325 301.26L545.01 282.461C542.423 267.788 544.227 252.827 552.705 240.405C561.238 227.905 574.605 220.796 589.535 218.163L647.003 208.03C662.008 205.384 677.065 207.438 689.421 216.254C701.714 225.026 708.533 238.497 711.121 253.171L714.436 271.971L726.635 269.82C759.794 263.973 789.654 267.179 813.151 283.42C836.7 299.696 849.938 326.35 855.679 358.905L898.179 599.936C903.94 632.611 900.642 662.254 884.092 685.646C867.572 708.997 840.596 722.225 807.437 728.072L310.336 815.724C277.345 821.541 247.5 818.419 223.959 802.191C200.357 785.92 187.03 759.195 181.239 726.352L138.739 485.321C132.968 452.597 136.377 422.995 153.003 399.676C169.578 376.428 196.543 363.289 229.534 357.472L241.733 355.321L238.418 336.521C235.831 321.847 237.631 306.857 246.183 294.409C254.778 281.899 268.225 274.819 283.229 272.173L340.697 262.04Z" stroke="white" stroke-width="40"/>
</g>
<defs>
<filter id="filter0_d_2022_81" x="36.1378" y="126.96" width="964.661" height="811.468" filterUnits="userSpaceOnUse" color-interpolation-filters="sRGB">
<feFlood flood-opacity="0" result="BackgroundImageFix"/>
<feColorMatrix in="SourceAlpha" type="matrix" values="0 0 0 0 0 0 0 0 0 0 0 0 0 0 0 0 0 0 127 0" result="hardAlpha"/>
<feOffset dy="20"/>
<feGaussianBlur stdDeviation="40"/>
<feComposite in2="hardAlpha" operator="out"/>
<feColorMatrix type="matrix" values="0 0 0 0 0 0 0 0 0 0 0 0 0 0 0 0 0 0 0.25 0"/>
<feBlend mode="normal" in2="BackgroundImageFix" result="effect1_dropShadow_2022_81"/>
<feBlend mode="normal" in="SourceGraphic" in2="effect1_dropShadow_2022_81" result="shape"/>
</filter>
<linearGradient id="paint0_linear_2022_81" x1="468.588" y1="259.798" x2="711.996" y2="724.592" gradientUnits="userSpaceOnUse">
<stop stop-color="#222222"/>
<stop offset="0.6" stop-color="#333333"/>
<stop offset="1" stop-color="#484848"/>
</linearGradient>
</defs>
</svg>
